<svg xmlns="http://www.w3.org/2000/svg" xmlns:xlink="http://www.w3.org/1999/xlink" width="18" height="18" viewBox="0 0 18 18">
  <defs>
    <clipPath id="clip-Billing">
      <rect width="18" height="18"/>
    </clipPath>
  </defs>
  <g id="Billing" clip-path="url(#clip-Billing)">
    <path id="billing-2" data-name="billing" d="M2.767,4A2.051,2.051,0,0,0,1,6.213a.291.291,0,0,0,.257.316H4.082V16.962a2.043,2.043,0,0,0,1.8,2.213h8.732a2.043,2.043,0,0,0,1.8-2.213.291.291,0,0,0-.257-.316H13.327V6.213A2.043,2.043,0,0,0,11.529,4L2.8,4Zm.03.63c.611,0,1.046.563,1.178,1.265H1.62C1.751,5.2,2.186,4.632,2.8,4.632Zm1.253,0h7.478a1.451,1.451,0,0,1,1.284,1.581V16.646H7.42a.291.291,0,0,0-.257.316A1.451,1.451,0,0,1,5.88,18.543a1.171,1.171,0,0,1-.909-.462A1.778,1.778,0,0,1,4.6,16.962V6.213A2.477,2.477,0,0,0,4.051,4.632ZM6.5,5.265V5.85a1.055,1.055,0,0,0-.35.114.92.92,0,0,0-.268.219.983.983,0,0,0-.168.314,1.331,1.331,0,0,0-.058.4,1.206,1.206,0,0,0,.067.417.985.985,0,0,0,.193.32,1.314,1.314,0,0,0,.308.242,2.441,2.441,0,0,0,.41.178,1.88,1.88,0,0,1,.29.145.791.791,0,0,1,.2.161.565.565,0,0,1,.111.19.687.687,0,0,1,.034.221.768.768,0,0,1-.042.262.54.54,0,0,1-.125.2.555.555,0,0,1-.2.125.776.776,0,0,1-.484.008.484.484,0,0,1-.2-.122A.635.635,0,0,1,6.08,9a1.114,1.114,0,0,1-.054-.376h-.5a1.537,1.537,0,0,0,.077.517,1.052,1.052,0,0,0,.2.354.893.893,0,0,0,.3.215,1.254,1.254,0,0,0,.347.1v.512h.4V9.812a1.26,1.26,0,0,0,.384-.106.9.9,0,0,0,.291-.213.946.946,0,0,0,.185-.314,1.205,1.205,0,0,0,.065-.412,1.242,1.242,0,0,0-.063-.412.919.919,0,0,0-.184-.315,1.186,1.186,0,0,0-.3-.237,2.47,2.47,0,0,0-.413-.187A2.15,2.15,0,0,1,6.5,7.47a.947.947,0,0,1-.2-.163.527.527,0,0,1-.11-.187.808.808,0,0,1-.032-.231.968.968,0,0,1,.032-.253.479.479,0,0,1,.268-.322A.573.573,0,0,1,6.7,6.269a.444.444,0,0,1,.234.061A.51.51,0,0,1,7.1,6.5a.815.815,0,0,1,.1.257,1.374,1.374,0,0,1,.037.329h.5a1.457,1.457,0,0,0-.22-.852.892.892,0,0,0-.615-.381V5.265Zm2.435,1.9c-.343.021-.316.654.026.632h2.56c.347.006.347-.639,0-.632H8.939Zm0,1.9c-.343.021-.316.654.026.632h2.56c.347.006.347-.639,0-.632H8.939Zm-3.082,1.9c-.343.021-.316.654.026.632h5.642c.347.006.347-.639,0-.632H5.857Zm0,1.9c-.343.021-.316.654.026.632h5.642c.347.006.347-.639,0-.632H5.857Zm0,1.9c-.343.021-.316.654.026.632h5.642c.347.006.347-.639,0-.632H5.857Zm1.767,2.529h8.164c-.131.7-.566,1.265-1.178,1.265H7.129a2.422,2.422,0,0,0,.5-1.265Z" transform="translate(0.796 -2.73)" fill="#fff" stroke="#fff" stroke-width="0.2"/>
  </g>
</svg>
