<svg xmlns="http://www.w3.org/2000/svg" width="15.215" height="19.97" viewBox="0 0 15.215 19.97">
  <path id="lock_FILL0_wght400_GRAD0_opsz48" d="M9.426,21.97A1.421,1.421,0,0,1,8,20.544V10.226A1.421,1.421,0,0,1,9.426,8.8h1.664V6.517a4.355,4.355,0,0,1,1.319-3.2,4.534,4.534,0,0,1,6.4,0,4.355,4.355,0,0,1,1.319,3.2V8.8h1.664a1.421,1.421,0,0,1,1.426,1.426V20.544a1.421,1.421,0,0,1-1.426,1.426Zm0-1.426H21.789V10.226H9.426Zm6.181-3.328a1.785,1.785,0,0,0,1.3-.523,1.7,1.7,0,0,0,.535-1.26,1.871,1.871,0,0,0-.535-1.3,1.732,1.732,0,0,0-2.591,0,1.871,1.871,0,0,0-.535,1.3,1.7,1.7,0,0,0,.535,1.26A1.785,1.785,0,0,0,15.608,17.215ZM12.517,8.8H18.7V6.517a3.084,3.084,0,0,0-3.091-3.091,3.084,3.084,0,0,0-3.091,3.091ZM9.426,20.544v0Z" transform="translate(-8 -2)" fill="#fff"/>
</svg>
