<svg xmlns="http://www.w3.org/2000/svg" xmlns:xlink="http://www.w3.org/1999/xlink" width="20" height="20" viewBox="0 0 20 20">
  <defs>
    <clipPath id="clip-Find_Subbie">
      <rect width="20" height="20"/>
    </clipPath>
  </defs>
  <g id="Find_Subbie" data-name="Find Subbie" clip-path="url(#clip-Find_Subbie)">
    <g id="search-user" transform="translate(-0.008 -0.909)">
      <path id="Path_70" data-name="Path 70" d="M30.355,30.82a.353.353,0,0,1-.251-.1l-1.6-1.6a.355.355,0,1,1,.5-.5l1.6,1.6a.355.355,0,0,1-.251.605Z" transform="translate(-17.035 -17.035)" fill="#fff" stroke="#fff" stroke-width="0.2"/>
      <path id="Path_71" data-name="Path 71" d="M24.176,24.163a.355.355,0,0,1-.251-.1l-3.377-3.377a1.723,1.723,0,0,1,2.436-2.436l3.377,3.377a.355.355,0,0,1,0,.5L24.427,24.06a.355.355,0,0,1-.251.1Zm-2.409-5.712a1.013,1.013,0,0,0-.717,1.73l3.126,3.126,1.434-1.434-3.126-3.126A1.011,1.011,0,0,0,21.767,18.451Zm-6.483-4.926a1.748,1.748,0,1,1,1.748-1.748,1.75,1.75,0,0,1-1.748,1.748Zm0-2.787a1.039,1.039,0,1,0,1.039,1.039A1.04,1.04,0,0,0,15.284,10.738Z" transform="translate(-7.44 -5.106)" fill="#fff" stroke="#fff" stroke-width="0.2"/>
      <path id="Path_72" data-name="Path 72" d="M4.726,12.815a.355.355,0,0,1-.2-.063,5.837,5.837,0,1,1,7.449-.669,5.788,5.788,0,0,1-.808.669.355.355,0,0,1-.555-.253,2.782,2.782,0,0,0-5.531,0A.355.355,0,0,1,4.726,12.815ZM7.844,2.826a5.127,5.127,0,0,0-3.627,8.754q.13.129.273.252a3.492,3.492,0,0,1,6.709,0c.1-.082.186-.165.272-.252A5.127,5.127,0,0,0,7.844,2.826Z" transform="translate(0 0)" fill="#fff" stroke="#fff" stroke-width="0.2"/>
      <path id="Path_73" data-name="Path 73" d="M12.146,26.877a5.822,5.822,0,0,1-3.32-1.033.355.355,0,0,1-.151-.33,3.491,3.491,0,0,1,6.941,0,.355.355,0,0,1-.15.33,5.823,5.823,0,0,1-3.32,1.033Zm-2.735-1.5a5.144,5.144,0,0,0,5.469,0,2.782,2.782,0,0,0-5.469,0Z" transform="translate(-4.302 -13.093)" fill="#fff" stroke="#fff" stroke-width="0.2"/>
    </g>
  </g>
</svg>
