<svg xmlns="http://www.w3.org/2000/svg" xmlns:xlink="http://www.w3.org/1999/xlink" width="18" height="18" viewBox="0 0 18 18">
  <defs>
    <clipPath id="clip-Invoice">
      <rect width="18" height="18"/>
    </clipPath>
  </defs>
  <g id="Invoice" clip-path="url(#clip-Invoice)">
    <g id="invoice-2" data-name="invoice" transform="translate(-5.912 -2.276)">
      <path id="Path_63" data-name="Path 63" d="M19.711,19.052a.4.4,0,0,1-.273-.106l-.928-.849-.925.849a.409.409,0,0,1-.546,0l-.93-.849-.925.849a.409.409,0,0,1-.546,0l-.93-.849-.925.849a.409.409,0,0,1-.546,0l-.93-.849-.925.849a.407.407,0,0,1-.546,0l-1.2-1.091a.412.412,0,0,1-.136-.3V3.909A.409.409,0,0,1,8.909,3.5h12a.409.409,0,0,1,.409.409V17.551a.412.412,0,0,1-.136.3l-1.2,1.091a.4.4,0,0,1-.273.106Zm-1.2-1.91a.412.412,0,0,1,.273.106l.928.849.794-.718V4.319H9.319V17.371l.791.726.922-.84a.409.409,0,0,1,.546,0l.93.84.925-.84a.409.409,0,0,1,.546,0l.933.84.925-.84a.409.409,0,0,1,.546,0l.928.84.925-.84a.412.412,0,0,1,.276-.115ZM20.914,17.551Z" transform="translate(0 0)" fill="#fff"/>
      <path id="Path_64" data-name="Path 64" d="M27.834,18.6H26.353a.409.409,0,1,1,0-.819h1.476a.559.559,0,0,0,.546-.559v-.025a.559.559,0,0,0-.546-.546h-.775a1.381,1.381,0,0,1,0-2.758h1.209a.409.409,0,1,1,0,.819H27.054a.562.562,0,0,0,0,1.121h.78A1.381,1.381,0,0,1,29.2,17.194v.033A1.381,1.381,0,0,1,27.834,18.6Z" transform="translate(-12.533 -7.555)" fill="#fff"/>
      <path id="Path_65" data-name="Path 65" d="M20.14,17.048a.409.409,0,0,1-.409-.409v-.917a.409.409,0,1,1,.819,0v.917A.409.409,0,0,1,20.14,17.048Zm0-4.827a.409.409,0,0,1-.409-.409v-.9a.409.409,0,1,1,.819,0v.914A.409.409,0,0,1,20.14,12.222Zm4.041,6.745h-.589a.409.409,0,0,1,0-.819h.589a.409.409,0,1,1,0,.819Zm-1.986,0H16.1a.409.409,0,0,1,0-.819h6.1a.409.409,0,1,1,0,.819Zm1.986,1.765h-.589a.409.409,0,0,1,0-.819h.589a.409.409,0,1,1,0,.819Zm-1.986,0H16.1a.409.409,0,1,1,0-.819h6.1a.409.409,0,1,1,0,.819Z" transform="translate(-5.228 -5.09)" fill="#fff"/>
    </g>
  </g>
</svg>
