<svg width="24" height="25" viewBox="0 0 24 25" fill="none" xmlns="http://www.w3.org/2000/svg">
<path d="M17.7679 3.50574L17.7679 5.4274C17.7679 5.55861 17.8253 5.68161 17.9264 5.76362C18.1588 5.95496 18.3829 6.15998 18.5961 6.37593C19.4802 7.25914 20.1848 8.30532 20.6709 9.45659C21.1747 10.6493 21.4331 11.9313 21.4308 13.2261C21.4308 14.5355 21.1738 15.8038 20.6709 16.9956C20.1848 18.1469 19.4802 19.1931 18.5961 20.0763C17.715 20.9611 16.6707 21.6666 15.5209 22.1538C14.3291 22.6595 13.0635 22.9137 11.7542 22.9137C10.4448 22.9137 9.1792 22.6567 7.98739 22.1538C6.83658 21.6672 5.80058 20.9674 4.91219 20.0763C4.0238 19.1852 3.32402 18.1492 2.83746 16.9956C2.33449 15.8038 2.07754 14.5355 2.07754 13.2261C2.07754 11.9168 2.33176 10.6484 2.83746 9.45659C3.32402 8.30305 4.0238 7.26705 4.91219 6.37593C5.12814 6.15998 5.35229 5.9577 5.5819 5.76362C5.68304 5.68161 5.74044 5.55587 5.74044 5.4274L5.74044 3.50574C5.74044 3.33353 5.5491 3.22692 5.40422 3.32259C2.14588 5.4192 -0.0108628 9.08757 7.13863e-05 13.2562C0.0164727 19.8057 5.33315 25.0567 11.8744 24.9911C18.3119 24.9255 23.5083 19.6827 23.5083 13.2261C23.5083 9.06843 21.3543 5.41646 18.1041 3.32259C17.9592 3.22965 17.7679 3.33353 17.7679 3.50574ZM11.582 1.07565L8.52043 4.9545C8.40562 5.09938 8.50949 5.30986 8.69264 5.30986L10.7701 5.30986L10.7701 13.8931C10.7701 14.0134 10.8685 14.1118 10.9888 14.1118L12.5196 14.1118C12.6398 14.1118 12.7382 14.0134 12.7382 13.8931L12.7382 5.30986L14.8157 5.30986C14.9988 5.30986 15.1027 5.09664 14.9879 4.9545L11.9264 1.07565C11.9059 1.04951 11.8798 1.02837 11.8499 1.01384C11.8201 0.999298 11.7874 0.991744 11.7542 0.991744C11.721 0.991744 11.6882 0.999298 11.6584 1.01384C11.6285 1.02837 11.6024 1.04951 11.582 1.07565V1.07565Z" fill="white"/>
</svg>
