<svg xmlns="http://www.w3.org/2000/svg" width="18" height="18.409" viewBox="0 0 18 18.409">
  <path id="settings_FILL0_wght400_GRAD0_opsz48" d="M14.966,22.409H11.929a.686.686,0,0,1-.449-.161.677.677,0,0,1-.242-.414l-.368-2.324a6.166,6.166,0,0,1-.92-.437A6.324,6.324,0,0,1,9.1,18.5l-2.14.989a.684.684,0,0,1-.506.035.667.667,0,0,1-.391-.334L4.542,16.495a.6.6,0,0,1-.069-.483.767.767,0,0,1,.276-.414l1.979-1.45a2.736,2.736,0,0,1-.058-.472q-.012-.265-.012-.472t.012-.472a2.736,2.736,0,0,1,.058-.472l-1.979-1.45a.767.767,0,0,1-.276-.414.6.6,0,0,1,.069-.483L6.061,7.222a.667.667,0,0,1,.391-.334.684.684,0,0,1,.506.035l2.14.989a6.324,6.324,0,0,1,.851-.575,4.762,4.762,0,0,1,.92-.414l.368-2.347a.677.677,0,0,1,.242-.414A.686.686,0,0,1,11.929,4h3.037a.686.686,0,0,1,.449.161.677.677,0,0,1,.242.414L16.024,6.9a7.46,7.46,0,0,1,.932.426,3.961,3.961,0,0,1,.84.587l2.14-.989a.684.684,0,0,1,.506-.035.667.667,0,0,1,.391.334l1.519,2.669a.657.657,0,0,1,.081.495.682.682,0,0,1-.288.426l-1.979,1.4a3.242,3.242,0,0,1,.058.495q.012.265.012.495t-.012.483a3.2,3.2,0,0,1-.058.483L22.145,15.6a.767.767,0,0,1,.276.414.6.6,0,0,1-.069.483l-1.519,2.692a.667.667,0,0,1-.391.334.684.684,0,0,1-.506-.035L17.8,18.5a7.634,7.634,0,0,1-.84.587,4.01,4.01,0,0,1-.932.426l-.368,2.324a.677.677,0,0,1-.242.414A.686.686,0,0,1,14.966,22.409ZM13.447,16.2A2.985,2.985,0,0,0,16.439,13.2a2.985,2.985,0,0,0-2.991-2.991A2.985,2.985,0,0,0,10.456,13.2,2.985,2.985,0,0,0,13.447,16.2Zm0-1.381a1.611,1.611,0,1,1,1.139-.472A1.552,1.552,0,0,1,13.447,14.815Zm0-1.611Zm-1.012,7.824H14.46l.322-2.577a5.427,5.427,0,0,0,1.438-.575,5.9,5.9,0,0,0,1.231-.943l2.439,1.059.92-1.657-2.163-1.588q.092-.391.15-.771a5.139,5.139,0,0,0,.058-.771,6.4,6.4,0,0,0-.046-.771,4.761,4.761,0,0,0-.161-.771l2.163-1.588-.92-1.657L17.451,9.477a5.129,5.129,0,0,0-1.2-1,3.881,3.881,0,0,0-1.473-.518L14.46,5.381H12.435l-.322,2.577a4.876,4.876,0,0,0-1.461.552,5.075,5.075,0,0,0-1.208.966L7,8.418l-.92,1.657,2.163,1.588q-.092.391-.15.771a5.194,5.194,0,0,0,0,1.542q.058.38.15.771L6.084,16.334,7,17.991l2.439-1.059a5.9,5.9,0,0,0,1.231.943,5.427,5.427,0,0,0,1.438.575Z" transform="translate(-4.45 -4)" fill="#fff"/>
</svg>
