<svg xmlns="http://www.w3.org/2000/svg" width="19" height="20.78" viewBox="0 0 19 20.78">
  <path id="receipt_long_FILL0_wght400_GRAD0_opsz48" d="M8.6,25.08A2.726,2.726,0,0,1,5.85,22.332V19.846a.761.761,0,0,1,.785-.785H9.174V4.823q0-.262.209-.262a.6.6,0,0,1,.419.209l.942.942,1.282-1.282a.382.382,0,0,1,.576,0l1.256,1.282,1.282-1.282a.382.382,0,0,1,.576,0L17,5.713l1.282-1.282a.382.382,0,0,1,.576,0l1.282,1.282,1.282-1.282a.382.382,0,0,1,.576,0L23.28,5.713l.942-.942a.6.6,0,0,1,.419-.209q.209,0,.209.262V22.332A2.726,2.726,0,0,1,22.1,25.08Zm13.5-1.57a1.122,1.122,0,0,0,1.178-1.178V6.76H10.744v12.3h9.4a.761.761,0,0,1,.785.785v2.486A1.122,1.122,0,0,0,22.1,23.509ZM12.89,10.9a.711.711,0,0,1-.537-.236.807.807,0,0,1-.222-.576.731.731,0,0,1,.222-.537.763.763,0,0,1,.563-.222h4.711a.785.785,0,1,1,0,1.57Zm0,3.507a.711.711,0,0,1-.537-.236.807.807,0,0,1-.222-.576.731.731,0,0,1,.222-.537.763.763,0,0,1,.563-.222h4.711a.785.785,0,1,1,0,1.57ZM20.846,10.9a.8.8,0,1,1,.55-.236A.753.753,0,0,1,20.846,10.9Zm0,3.376a.8.8,0,1,1,.55-.236A.753.753,0,0,1,20.846,14.271ZM8.572,23.509H19.354V20.631H7.42v1.7a1.151,1.151,0,0,0,.327.851A1.118,1.118,0,0,0,8.572,23.509Zm-1.152,0v0Z" transform="translate(-5.85 -4.3)" fill="#fff"/>
</svg>
