<svg xmlns="http://www.w3.org/2000/svg" xmlns:xlink="http://www.w3.org/1999/xlink" width="18" height="18" viewBox="0 0 18 18">
  <defs>
    <clipPath id="clip-Subscription">
      <rect width="18" height="18"/>
    </clipPath>
  </defs>
  <g id="Subscription" clip-path="url(#clip-Subscription)">
    <g id="Group_36" data-name="Group 36" transform="translate(-2268.335 -681.213)">
      <path id="Path_60" data-name="Path 60" d="M46.125,2.254H42.651a3.566,3.566,0,0,0-6.632,0H32.545A.552.552,0,0,0,32,2.8v9.454a.534.534,0,0,0,.545.524h4.539v2.6H35.522v1.052h7.625V15.374H41.586v-2.6h4.539a.534.534,0,0,0,.545-.524V2.8A.552.552,0,0,0,46.125,2.254Zm-6.79-1.183A2.4,2.4,0,0,1,41.767,3.42a2.434,2.434,0,0,1-4.866,0A2.4,2.4,0,0,1,39.335,1.072Zm1.162,14.3H38.173v-2.6H40.5Zm5.083-3.648H33.089V3.307h2.725c0,.035,0,.073,0,.1a3.524,3.524,0,0,0,7.044,0c0-.032,0-.067,0-.1H45.58Z" transform="translate(2238 682)" fill="#fff"/>
      <path id="Path_61" data-name="Path 61" d="M209.278,49.335c0-.1.078-.2.3-.2a1.194,1.194,0,0,1,.592.194l.2-.512a1.319,1.319,0,0,0-.568-.2v-.376h-.508v.408a.761.761,0,0,0-.633.741c0,.456.384.663.763.8.314.121.376.225.376.344,0,.15-.143.251-.353.251a1.187,1.187,0,0,1-.665-.242l-.194.52a1.413,1.413,0,0,0,.669.25v.433h.545v-.462a.821.821,0,0,0,.643-.776c0-.388-.228-.649-.731-.844C209.344,49.515,209.278,49.443,209.278,49.335Z" transform="translate(2067.83 635.46)" fill="#fff"/>
      <rect id="Rectangle_768" data-name="Rectangle 768" width="6.209" height="1.052" transform="translate(2272.215 689.657)" fill="#fff"/>
      <rect id="Rectangle_769" data-name="Rectangle 769" width="6.209" height="1.052" transform="translate(2272.215 691.691)" fill="#fff"/>
      <path id="Path_62" data-name="Path 62" d="M298.015,193.46l-1.091-1.824.4.142.377-.987-1.812-.646a.552.552,0,0,0-.725.4l-.328,1.839,1.073.179.073-.407,1.093,1.827Z" transform="translate(1984.711 498.56)" fill="#fff"/>
    </g>
  </g>
</svg>
