<svg xmlns="http://www.w3.org/2000/svg" width="26.458" height="26.458" viewBox="0 0 26.458 26.458">
  <path id="cancel_FILL1_wght400_GRAD0_opsz48" d="M12.268,23.579l4.961-4.961,4.961,4.961,1.389-1.389-4.961-4.961,4.961-4.961L22.19,10.879,17.229,15.84l-4.961-4.961-1.389,1.389,4.961,4.961L10.879,22.19Zm4.961,6.879A12.8,12.8,0,0,1,12.1,29.416a13.328,13.328,0,0,1-7.061-7.061,13.214,13.214,0,0,1,0-10.285,13.221,13.221,0,0,1,2.844-4.2A13.561,13.561,0,0,1,12.1,5.042a13.214,13.214,0,0,1,10.285,0,13.208,13.208,0,0,1,7.028,7.028,13.214,13.214,0,0,1,0,10.285,13.561,13.561,0,0,1-2.828,4.217,13.221,13.221,0,0,1-4.2,2.844A12.882,12.882,0,0,1,17.229,30.458Z" transform="translate(-4 -4)" fill="#fff"/>
</svg>
