<svg xmlns="http://www.w3.org/2000/svg" width="24.27" height="24.27" viewBox="0 0 24.27 24.27">
  <path id="work_history_FILL1_wght400_GRAD0_opsz48" d="M15.275,22.647a6.981,6.981,0,0,0,.233,1.806,7.855,7.855,0,0,0,.67,1.69H5.748a1.677,1.677,0,0,1-1.224-.524A1.677,1.677,0,0,1,4,24.395V10.031a1.677,1.677,0,0,1,.524-1.224,1.677,1.677,0,0,1,1.224-.524h5.536V5.748a1.694,1.694,0,0,1,.524-1.209A1.656,1.656,0,0,1,13.032,4h5.244a1.656,1.656,0,0,1,1.224.539,1.694,1.694,0,0,1,.524,1.209V8.283H25.56a1.792,1.792,0,0,1,1.748,1.748v6.934a7.482,7.482,0,0,0-2.171-1.253,7.316,7.316,0,0,0-7.692,1.734A7.1,7.1,0,0,0,15.275,22.647ZM13.032,8.283h5.244V5.748H13.032ZM22.647,28.27a5.671,5.671,0,0,1-5.623-5.623,5.671,5.671,0,0,1,5.623-5.623,5.671,5.671,0,0,1,5.623,5.623,5.671,5.671,0,0,1-5.623,5.623Zm2.156-2.68.787-.787-2.447-2.214V18.976H21.918v3.962Z" transform="translate(-4 -4)" fill="#fff"/>
</svg>
