<svg xmlns="http://www.w3.org/2000/svg" width="22.9" height="26.982" viewBox="0 0 22.9 26.982">
  <path id="rotate_right_FILL1_wght400_GRAD0_opsz48" d="M19.017,28.682V26.769a10.977,10.977,0,0,0,2.2-.622,9.118,9.118,0,0,0,2.105-1.2l1.371,1.4a11.824,11.824,0,0,1-2.711,1.531,13.017,13.017,0,0,1-2.966.8Zm-2.87,0a11.657,11.657,0,0,1-7.208-3.891A11.236,11.236,0,0,1,6.1,17.1a11.279,11.279,0,0,1,.893-4.481A11.45,11.45,0,0,1,13.1,6.516a11.279,11.279,0,0,1,4.481-.893h.638L15.7,3.1l1.4-1.4,4.88,4.88L17.1,11.46l-1.4-1.4,2.52-2.52h-.638A9.423,9.423,0,0,0,8.014,17.1a9.306,9.306,0,0,0,2.312,6.363,10.037,10.037,0,0,0,5.821,3.3ZM26.7,24.345l-1.4-1.4a8.3,8.3,0,0,0,1.164-2.073,10.111,10.111,0,0,0,.59-2.328H29a13.254,13.254,0,0,1-.813,3.11A11.99,11.99,0,0,1,26.7,24.345ZM29,15.67H27.054a10.206,10.206,0,0,0-1.754-4.4L26.7,9.9a12.4,12.4,0,0,1,1.5,2.727A13.238,13.238,0,0,1,29,15.67Z" transform="translate(-6.1 -1.7)" fill="#fff"/>
</svg>
