<svg id="Group_25" data-name="Group 25" xmlns="http://www.w3.org/2000/svg" width="41.181" height="40.004" viewBox="0 0 41.181 40.004">
  <path id="Path_55" data-name="Path 55" d="M37.006,13.15c-.449.229-.627.626-.627,1.4,0,.588-.011.629-.182.66-1.011.186-1.6.314-2.058.448l-.547.159v3.257c0,3.248,0,3.258-.183,3.542a1.235,1.235,0,0,1-1.957.107l-.2-.209-.023-2.69c-.013-1.48-.053-2.69-.089-2.69a11.713,11.713,0,0,0-2.981,2.879,10.36,10.36,0,0,0-1.929,6l-.048,1.341-.709.027c-.562.021-.756.06-.932.188a1.135,1.135,0,0,0,.049,1.969l.267.176H50.325l.267-.176a1.135,1.135,0,0,0,.049-1.969c-.176-.128-.371-.167-.932-.188L49,27.355l-.048-1.341a10.221,10.221,0,0,0-.575-3.365,11,11,0,0,0-2.528-4.038,8.075,8.075,0,0,0-1.789-1.479,12.585,12.585,0,0,0-.089,2.583c0,2.787,0,2.8-.443,3.2-.182.165-.294.2-.714.2a1.063,1.063,0,0,1-1.077-.547c-.137-.218-.148-.47-.148-3.491V15.815l-.547-.159c-.461-.134-1.047-.262-2.058-.448-.17-.032-.182-.072-.182-.66,0-.785-.177-1.171-.644-1.4A1.192,1.192,0,0,0,37.006,13.15Zm-4.868,2.028c-.624.128-.927.559-.927,1.32a1.114,1.114,0,0,0,.054.477,2.492,2.492,0,0,0,.426-.231,12.039,12.039,0,0,1,1.077-.551,3.285,3.285,0,0,0,.7-.377,1,1,0,0,0-.426-.494A1.5,1.5,0,0,0,32.138,15.178Zm6.147,0h.52l-.022,4.332c-.022,4.236-.026,4.337-.189,4.548a1.207,1.207,0,0,1-2.009,0c-.163-.211-.167-.312-.189-4.544l-.022-4.328.587-.026a5.772,5.772,0,0,1,.695,0A5.846,5.846,0,0,0,38.285,15.177Zm4.271,0a1.975,1.975,0,0,0-.424.145c-.192.1-.472.459-.407.522.021.021.366.192.766.38s.878.434,1.061.546a2.437,2.437,0,0,0,.375.2,2.442,2.442,0,0,0-.086-1.215A1.19,1.19,0,0,0,42.556,15.178ZM27.74,34.5c0,2.8.079,3.515.528,4.814a9.936,9.936,0,0,0,18.646,0c.448-1.3.527-2.016.528-4.814V32.059h-19.7Zm1.937,11.2a1.129,1.129,0,0,1-.453.888l-.214.163.144.371a10.2,10.2,0,0,0,2.794,3.9,8.488,8.488,0,0,0,5.2,1.953,8.628,8.628,0,0,0,6.577-2.4,10.667,10.667,0,0,0,2.3-3.458l.144-.371-.213-.162a1.085,1.085,0,0,1-.451-.833l-.044-.331-.727.507a15.257,15.257,0,0,1-3.289,1.639,13.757,13.757,0,0,1-5.345.513,12.778,12.778,0,0,1-6-2.4,2.184,2.184,0,0,0-.383-.265C29.7,45.423,29.677,45.548,29.677,45.7ZM23.9,49a31.329,31.329,0,0,0-4.724,2.388c-.615.4-2.18,1.538-2.18,1.588,0,.015,3.048.027,6.773.027h6.773l-.818-.8a15,15,0,0,1-1.33-1.5,15.977,15.977,0,0,1-1.547-2.827.1.1,0,0,0-.1-.1C26.695,47.769,25.414,48.323,23.9,49Zm24.425-1.135A15.363,15.363,0,0,1,47.1,50.23a13.113,13.113,0,0,1-1.92,2.252L44.613,53H51.4c3.731,0,6.784-.014,6.784-.031a27.283,27.283,0,0,0-3.721-2.5c-.725-.384-5.895-2.7-6.025-2.7A.1.1,0,0,0,48.329,47.866Z" transform="translate(-17 -13)" fill="#fecd07" fill-rule="evenodd"/>
</svg>
