<svg xmlns="http://www.w3.org/2000/svg" width="51" height="51" viewBox="0 0 51 51">
  <g id="Group_57" data-name="Group 57" transform="translate(4.722 4.722)">
    <circle id="Ellipse_61" data-name="Ellipse 61" cx="20.5" cy="20.5" r="20.5" transform="translate(0.278 0.278)" fill="#24336a"/>
    <g id="Group_56" data-name="Group 56" transform="translate(11.334 11.333)">
      <path id="Path_59" data-name="Path 59" d="M2385.716,304.083c.109-.406.222-.81.325-1.217.27-1.071.532-2.144.805-3.214a.663.663,0,0,1,.163-.293q5.041-5.051,10.089-10.095c.025-.025.053-.048.067-.06l3.974,3.974c-.024.026-.067.074-.113.12q-5,4.994-9.993,9.985a.874.874,0,0,1-.381.22c-1.438.368-2.879.725-4.32,1.084a.446.446,0,0,1-.616-.249Z" transform="translate(-2385.716 -286.065)" fill="#fff"/>
      <path id="Path_60" data-name="Path 60" d="M2724.845,211.969l-3.935-3.935c.488-.5.96-1.039,1.49-1.514a2,2,0,0,1,2.584.018,17.271,17.271,0,0,1,1.37,1.372,1.951,1.951,0,0,1-.017,2.588C2725.862,211.012,2725.341,211.483,2724.845,211.969Z" transform="translate(-2708.258 -206.055)" fill="#fff"/>
    </g>
  </g>
  <g id="Ellipse_61-2" data-name="Ellipse 61" fill="none" stroke="#24336a" stroke-width="1">
    <circle cx="25.5" cy="25.5" r="25.5" stroke="none"/>
    <circle cx="25.5" cy="25.5" r="25" fill="none"/>
  </g>
</svg>
