<svg xmlns="http://www.w3.org/2000/svg" width="12.792" height="15.326" viewBox="0 0 12.792 15.326">
  <path id="pin_drop_FILL1_wght400_GRAD0_opsz48_3_" data-name="pin_drop_FILL1_wght400_GRAD0_opsz48 (3)" d="M16.9,19.326a1.268,1.268,0,0,1-.308-.036.675.675,0,0,1-.261-.13,20.2,20.2,0,0,1-4.394-4.418,7.482,7.482,0,0,1-1.433-4.2,6.52,6.52,0,0,1,.58-2.831,6.418,6.418,0,0,1,1.5-2.049,6.287,6.287,0,0,1,2.061-1.244,6.315,6.315,0,0,1,4.5,0,6.287,6.287,0,0,1,2.061,1.244,6.418,6.418,0,0,1,1.5,2.049,6.52,6.52,0,0,1,.58,2.831,7.482,7.482,0,0,1-1.433,4.2,20.2,20.2,0,0,1-4.394,4.418.675.675,0,0,1-.261.13A1.268,1.268,0,0,1,16.9,19.326Zm0-7.272a1.658,1.658,0,0,0,1.173-2.831,1.658,1.658,0,0,0-2.345,2.345A1.6,1.6,0,0,0,16.9,12.054Z" transform="translate(-10.5 -4)" fill="#967904"/>
</svg>
