<svg id="Group_24" data-name="Group 24" xmlns="http://www.w3.org/2000/svg" width="36.475" height="36.474" viewBox="0 0 36.475 36.474">
  <path id="Path_56" data-name="Path 56" d="M32.681,16.092c-.333.191-.338.23-.341,2.587l0,2.26.477.173a9.359,9.359,0,0,1,3.26,2.06l.62.607,5.112.021,5.112.021.184.214a.623.623,0,0,1,0,.869l-.184.214-4.628.021a31.026,31.026,0,0,0-4.587.114l.347.791a10.439,10.439,0,0,1,.44,1.2l.134.5h5.842l.643-.491a14.144,14.144,0,0,1,3.817-2.039l.3-.11V16.368l-.214-.184L48.8,16l-7.985,0C34.956,16,32.793,16.028,32.681,16.092ZM47.1,20.144a.6.6,0,0,1,0,.858l-.187.187H34.652l-.154-.172a.568.568,0,0,1-.166-.667c.165-.473-.105-.455,6.535-.437l6.051.017ZM29.015,22.039A7.775,7.775,0,0,0,23.2,25.521a8.351,8.351,0,0,0-1.3,5.261l.023,1.085.19-.095c.149-.074.2-.176.243-.467A2.869,2.869,0,0,1,25.073,28.9a8.156,8.156,0,0,0,3.485-1.326c.951-.666,1.32-.658,2.406.047a8.776,8.776,0,0,0,3.81,1.351,2.8,2.8,0,0,1,2.325,2.45.421.421,0,0,0,.235.361l.189.086V30.507a13.633,13.633,0,0,0-.112-2,7.787,7.787,0,0,0-8.4-6.466Zm23,3.812c-4.517.581-8.425,3.5-9.69,7.242a4.908,4.908,0,0,0-.154,2.157,1.78,1.78,0,0,0,1.8,1.261,6.976,6.976,0,0,0,4.213-1.621,17.88,17.88,0,0,0,2.627-2.61c.064-.14-.01-.289-.5-.992a8.91,8.91,0,0,1-.619-.98.693.693,0,0,1,.085-.414c.127-.249.209-.288,1.77-.842l1.638-.581.355-.8c.2-.439.461-1.047.59-1.351l.235-.553-.931.01C52.929,25.782,52.287,25.815,52.014,25.85ZM29.249,28.674a9.2,9.2,0,0,1-3.394,1.4c-1.251.233-1.4.277-1.663.475a1.988,1.988,0,0,0-.619,1.437c-.091.679-.287.954-.679.954a1.022,1.022,0,0,0-.969,1.121,1.1,1.1,0,0,0,.881.823.776.776,0,0,1,.729.643,11.392,11.392,0,0,0,.579,2.049,2.9,2.9,0,0,0,.788,1.108,10.572,10.572,0,0,0,4.554,2.688,3.31,3.31,0,0,0,1.871-.463A12.2,12.2,0,0,0,34.8,38.424a5.727,5.727,0,0,0,1-2.414,4.328,4.328,0,0,1,.276-.9.976.976,0,0,1,.409-.192c.723-.181,1.04-.493,1.04-1.025a1.028,1.028,0,0,0-.976-.957c-.371,0-.6-.264-.659-.77-.107-.872-.2-1.143-.53-1.483s-.487-.406-1.535-.568a9.056,9.056,0,0,1-3.508-1.371c-.316-.213-.583-.387-.593-.387S29.5,28.5,29.249,28.674Zm9.571,1.671v1.3h2.655l.357-.637a15.025,15.025,0,0,1,.845-1.3l.488-.66H38.82Zm-.013,3.377a2.5,2.5,0,0,1-.489,1.64l-.126.172h2.672l-.037-.782a5.246,5.246,0,0,1,.071-1.3l.109-.515H38.834Zm9.968,2.38c-1.93,1.444-4.555,2.086-6.044,1.477l-.475-.194L41.3,38.4l-.96,1.018,3.291.021,3.291.021.184.214a.6.6,0,0,1,0,.858l-.187.187H37.245l-.166-.177a.807.807,0,0,1-.118-.774c.086-.224.454-.347,1.042-.347h.563l.835-.9c.459-.493,1-1.077,1.205-1.3l.37-.4H36.926l-.053.248a8.212,8.212,0,0,1-.28.844,8.01,8.01,0,0,1-3.057,3.243l-.594.387.976.306c.537.168,1.643.513,2.46.766,2.211.686,3,1.109,4.043,2.172l.493.5h8.356V40.532c0-2.623-.009-4.769-.021-4.769S49.024,35.916,48.775,36.1ZM27.834,42.5A2.009,2.009,0,0,0,29.674,44a1.986,1.986,0,0,0,1.865-1.3,1.336,1.336,0,0,0,.1-.417,3.053,3.053,0,0,0-.637.169,4.018,4.018,0,0,1-2.572,0c-.326-.112-.605-.2-.621-.2A.556.556,0,0,0,27.834,42.5Zm-3.581,1.116c-2.608.819-2.71.859-3.4,1.319A5.327,5.327,0,0,0,18.982,47.1,11.209,11.209,0,0,0,18,51.507c0,.474.02.541.223.744l.223.223H29.666c11.961,0,11.562.012,11.7-.347a8.517,8.517,0,0,0-.068-2.209,9.924,9.924,0,0,0-.852-2.859A4.085,4.085,0,0,0,39.4,45.644c-.953-.948-1.369-1.149-4.173-2.013-1.241-.382-2.294-.7-2.339-.7s-.1.1-.132.229a3.471,3.471,0,0,1-1.127,1.5,3.178,3.178,0,0,1-4.269-.424,3.532,3.532,0,0,1-.594-.877c-.113-.274-.219-.423-.3-.417S25.407,43.251,24.254,43.613Zm17.5,3.119a14.36,14.36,0,0,1,.614,1.869l.138.591,5.191,0a50.373,50.373,0,0,0,5.465-.1,1.983,1.983,0,0,0,1.275-1.9l.034-.594H48.088C42.036,46.6,41.705,46.606,41.757,46.732Z" transform="translate(-18 -16)" fill="#fecd07" fill-rule="evenodd"/>
</svg>
