<svg xmlns="http://www.w3.org/2000/svg" width="14.792" height="14.792" viewBox="0 0 14.792 14.792">
  <path id="schedule_FILL1_wght400_GRAD0_opsz48" d="M13.725,14.558a.5.5,0,0,0,.388.166.527.527,0,0,0,.407-.185.536.536,0,0,0,.185-.416.564.564,0,0,0-.166-.416l-2.533-2.533V7.994a.517.517,0,0,0-.157-.379.555.555,0,0,0-.952.4V11.4a.543.543,0,0,0,.037.2.736.736,0,0,0,.111.185ZM11.4,18.792a7.156,7.156,0,0,1-2.866-.582,7.451,7.451,0,0,1-3.948-3.948,7.342,7.342,0,0,1,0-5.732A7.451,7.451,0,0,1,8.53,4.582a7.342,7.342,0,0,1,5.732,0A7.451,7.451,0,0,1,18.209,8.53a7.342,7.342,0,0,1,0,5.732,7.451,7.451,0,0,1-3.948,3.948A7.156,7.156,0,0,1,11.4,18.792Z" transform="translate(-4 -4)" fill="#967904"/>
</svg>
